<svg width="160" height="160" viewBox="0 0 160 160" fill="none" xmlns="http://www.w3.org/2000/svg">
<circle cx="80" cy="80" r="80" fill="url(#paint0_linear_17_115)"/>
<path d="M76.72 114.352C75.8667 114.352 75.1413 114.053 74.544 113.456C73.9467 112.859 73.648 112.133 73.648 111.28V86.32H49.072C48.2187 86.32 47.4933 86.0213 46.896 85.424C46.2987 84.8267 46 84.1013 46 83.248V76.464C46 75.5253 46.2987 74.8 46.896 74.288C47.4933 73.6907 48.2187 73.392 49.072 73.392H73.648V49.072C73.648 48.2187 73.9467 47.4933 74.544 46.896C75.1413 46.2987 75.8667 46 76.72 46H84.144C85.0827 46 85.808 46.2987 86.32 46.896C86.9173 47.4933 87.216 48.2187 87.216 49.072V73.392H111.792C112.645 73.392 113.371 73.6907 113.968 74.288C114.565 74.8 114.864 75.5253 114.864 76.464V83.248C114.864 84.1013 114.565 84.8267 113.968 85.424C113.371 86.0213 112.645 86.32 111.792 86.32H87.216V111.28C87.216 112.133 86.9173 112.859 86.32 113.456C85.808 114.053 85.0827 114.352 84.144 114.352H76.72Z" fill="white"/>
<defs>
<linearGradient id="paint0_linear_17_115" x1="34.5" y1="60.5" x2="206.5" y2="352" gradientUnits="userSpaceOnUse">
<stop stop-color="#316BFF"/>
<stop offset="1" stop-color="#316BFF" stop-opacity="0"/>
</linearGradient>
</defs>
</svg>
