<svg width="200" height="200" viewBox="0 0 200 200" fill="none" xmlns="http://www.w3.org/2000/svg">
<circle cx="100" cy="100" r="100" fill="url(#paint0_linear_222_48)"/>
<path d="M148.125 93.0648H66.5875L91.5438 63.2306C92.7107 61.8332 93.2721 60.0317 93.1045 58.2223C92.9369 56.4129 92.054 54.7439 90.65 53.5824C89.246 52.4209 87.436 51.8621 85.618 52.029C83.8001 52.1958 82.1232 53.0745 80.9562 54.4719L46.5813 95.5282C46.35 95.8547 46.1432 96.1978 45.9625 96.5546C45.9625 96.8967 45.9625 97.102 45.4813 97.4441C45.1696 98.2287 45.0065 99.0639 45 99.9075C45.0065 100.751 45.1696 101.586 45.4813 102.371C45.4813 102.713 45.4812 102.918 45.9625 103.26C46.1432 103.617 46.35 103.96 46.5813 104.287L80.9562 145.343C81.6027 146.115 82.4121 146.737 83.3271 147.162C84.242 147.588 85.24 147.808 86.25 147.806C87.8564 147.81 89.4131 147.253 90.65 146.233C91.3462 145.658 91.9216 144.953 92.3434 144.157C92.7652 143.36 93.025 142.489 93.1081 141.593C93.1911 140.697 93.0956 139.793 92.8272 138.934C92.5588 138.074 92.1226 137.276 91.5438 136.584L66.5875 106.75H148.125C149.948 106.75 151.697 106.029 152.986 104.746C154.276 103.463 155 101.722 155 99.9075C155 98.0927 154.276 96.3522 152.986 95.069C151.697 93.7857 149.948 93.0648 148.125 93.0648Z" fill="white"/>
<defs>
<linearGradient id="paint0_linear_222_48" x1="37.5" y1="26.5" x2="319" y2="372.5" gradientUnits="userSpaceOnUse">
<stop stop-color="#0048FF"/>
<stop offset="1" stop-color="white"/>
</linearGradient>
</defs>
</svg>
