<svg width="40" height="40" viewBox="0 0 40 40" fill="none" xmlns="http://www.w3.org/2000/svg">
<path d="M31.6667 18.3333H11.9L17.95 11.0667C18.2329 10.7263 18.369 10.2875 18.3284 9.84679C18.2878 9.40607 18.0737 8.99956 17.7334 8.71666C17.393 8.43376 16.9542 8.29766 16.5135 8.33829C16.0728 8.37892 15.6663 8.59296 15.3834 8.93333L7.05002 18.9333C6.99395 19.0129 6.94382 19.0964 6.90002 19.1833C6.90002 19.2667 6.90002 19.3167 6.78335 19.4C6.70781 19.5911 6.66826 19.7945 6.66669 20C6.66826 20.2055 6.70781 20.4089 6.78335 20.6C6.78335 20.6833 6.78335 20.7333 6.90002 20.8167C6.94382 20.9036 6.99395 20.9871 7.05002 21.0667L15.3834 31.0667C15.5401 31.2548 15.7363 31.4061 15.9581 31.5098C16.1799 31.6135 16.4218 31.6671 16.6667 31.6667C17.0561 31.6674 17.4335 31.5318 17.7334 31.2833C17.9021 31.1434 18.0416 30.9716 18.1439 30.7777C18.2461 30.5837 18.3091 30.3716 18.3292 30.1533C18.3494 29.935 18.3262 29.7149 18.2612 29.5055C18.1961 29.2962 18.0904 29.1017 17.95 28.9333L11.9 21.6667H31.6667C32.1087 21.6667 32.5326 21.4911 32.8452 21.1785C33.1578 20.8659 33.3334 20.442 33.3334 20C33.3334 19.558 33.1578 19.134 32.8452 18.8215C32.5326 18.5089 32.1087 18.3333 31.6667 18.3333Z" fill="white"/>
</svg>
