<svg width="28" height="24" viewBox="0 0 28 24" fill="none" xmlns="http://www.w3.org/2000/svg">
<path d="M25.6667 10.3333H5.90002L11.95 3.06666C12.2329 2.7263 12.369 2.2875 12.3284 1.84679C12.2878 1.40607 12.0737 0.999556 11.7334 0.716658C11.393 0.433761 10.9542 0.297657 10.5135 0.33829C10.0728 0.378923 9.66625 0.592964 9.38335 0.933325L1.05002 10.9333C0.993955 11.0129 0.943819 11.0964 0.90002 11.1833C0.90002 11.2667 0.900021 11.3167 0.783354 11.4C0.70781 11.5911 0.668256 11.7945 0.666687 12C0.668256 12.2055 0.70781 12.4089 0.783354 12.6C0.783354 12.6833 0.783353 12.7333 0.90002 12.8167C0.943819 12.9036 0.993955 12.9871 1.05002 13.0667L9.38335 23.0667C9.54006 23.2548 9.73629 23.4061 9.9581 23.5098C10.1799 23.6135 10.4218 23.6671 10.6667 23.6667C11.0561 23.6674 11.4335 23.5318 11.7334 23.2833C11.9021 23.1434 12.0416 22.9716 12.1439 22.7777C12.2461 22.5837 12.3091 22.3716 12.3292 22.1533C12.3494 21.935 12.3262 21.7149 12.2612 21.5055C12.1961 21.2962 12.0904 21.1017 11.95 20.9333L5.90002 13.6667H25.6667C26.1087 13.6667 26.5326 13.4911 26.8452 13.1785C27.1578 12.8659 27.3334 12.442 27.3334 12C27.3334 11.558 27.1578 11.134 26.8452 10.8215C26.5326 10.5089 26.1087 10.3333 25.6667 10.3333Z" fill="white"/>
</svg>
