<svg width="290" height="40" viewBox="0 0 290 40" fill="none" xmlns="http://www.w3.org/2000/svg">
<rect width="290" height="40" rx="20" fill="url(#paint0_linear_195_40)"/>
<path d="M130.04 27C129.907 27 129.793 26.9533 129.7 26.86C129.607 26.7667 129.56 26.6533 129.56 26.52V13.5C129.56 13.3533 129.607 13.2333 129.7 13.14C129.793 13.0467 129.907 13 130.04 13H134.92C136.267 13 137.373 13.2067 138.24 13.62C139.12 14.0333 139.78 14.6467 140.22 15.46C140.673 16.2733 140.907 17.2667 140.92 18.44C140.947 19.0267 140.96 19.5467 140.96 20C140.96 20.4533 140.947 20.9667 140.92 21.54C140.893 22.78 140.667 23.8067 140.24 24.62C139.813 25.42 139.167 26.02 138.3 26.42C137.447 26.8067 136.353 27 135.02 27H130.04ZM132.34 24.7H134.92C135.667 24.7 136.273 24.5933 136.74 24.38C137.207 24.1667 137.547 23.8267 137.76 23.36C137.987 22.88 138.107 22.2533 138.12 21.48C138.133 21.08 138.14 20.7333 138.14 20.44C138.153 20.1333 138.153 19.8333 138.14 19.54C138.14 19.2333 138.133 18.8867 138.12 18.5C138.093 17.4067 137.82 16.6 137.3 16.08C136.78 15.56 135.953 15.3 134.82 15.3H132.34V24.7ZM147.863 27.2C146.383 27.2 145.209 26.7733 144.343 25.92C143.476 25.0667 143.009 23.8533 142.943 22.28C142.929 22.1467 142.923 21.98 142.923 21.78C142.923 21.5667 142.929 21.4 142.943 21.28C142.996 20.28 143.223 19.4133 143.623 18.68C144.036 17.9467 144.603 17.3867 145.323 17C146.043 16.6 146.889 16.4 147.863 16.4C148.943 16.4 149.849 16.6267 150.583 17.08C151.316 17.52 151.869 18.14 152.243 18.94C152.616 19.7267 152.803 20.64 152.803 21.68V22.1C152.803 22.2333 152.756 22.3467 152.663 22.44C152.569 22.5333 152.449 22.58 152.303 22.58H145.663C145.663 22.58 145.663 22.6 145.663 22.64C145.663 22.68 145.663 22.7133 145.663 22.74C145.676 23.2067 145.763 23.64 145.923 24.04C146.096 24.4267 146.343 24.74 146.663 24.98C146.996 25.22 147.389 25.34 147.843 25.34C148.216 25.34 148.529 25.2867 148.783 25.18C149.036 25.06 149.243 24.9267 149.403 24.78C149.563 24.6333 149.676 24.5133 149.743 24.42C149.863 24.26 149.956 24.1667 150.023 24.14C150.103 24.1 150.216 24.08 150.363 24.08H152.083C152.216 24.08 152.323 24.12 152.403 24.2C152.496 24.28 152.536 24.38 152.523 24.5C152.509 24.7133 152.396 24.9733 152.183 25.28C151.983 25.5867 151.689 25.8867 151.303 26.18C150.916 26.4733 150.429 26.72 149.843 26.92C149.269 27.1067 148.609 27.2 147.863 27.2ZM145.663 20.9H150.083V20.84C150.083 20.32 149.996 19.8667 149.823 19.48C149.649 19.0933 149.396 18.7867 149.063 18.56C148.729 18.3333 148.329 18.22 147.863 18.22C147.396 18.22 146.996 18.3333 146.663 18.56C146.329 18.7867 146.076 19.0933 145.903 19.48C145.743 19.8667 145.663 20.32 145.663 20.84V20.9ZM155.425 27C155.292 27 155.179 26.9533 155.085 26.86C154.992 26.7667 154.945 26.6533 154.945 26.52V13.28C154.945 13.1467 154.992 13.0333 155.085 12.94C155.179 12.8467 155.292 12.8 155.425 12.8H157.085C157.219 12.8 157.332 12.8467 157.425 12.94C157.519 13.0333 157.565 13.1467 157.565 13.28V26.52C157.565 26.6533 157.519 26.7667 157.425 26.86C157.332 26.9533 157.219 27 157.085 27H155.425ZM164.698 27.2C163.218 27.2 162.045 26.7733 161.178 25.92C160.312 25.0667 159.845 23.8533 159.778 22.28C159.765 22.1467 159.758 21.98 159.758 21.78C159.758 21.5667 159.765 21.4 159.778 21.28C159.832 20.28 160.058 19.4133 160.458 18.68C160.872 17.9467 161.438 17.3867 162.158 17C162.878 16.6 163.725 16.4 164.698 16.4C165.778 16.4 166.685 16.6267 167.418 17.08C168.152 17.52 168.705 18.14 169.078 18.94C169.452 19.7267 169.638 20.64 169.638 21.68V22.1C169.638 22.2333 169.592 22.3467 169.498 22.44C169.405 22.5333 169.285 22.58 169.138 22.58H162.498C162.498 22.58 162.498 22.6 162.498 22.64C162.498 22.68 162.498 22.7133 162.498 22.74C162.512 23.2067 162.598 23.64 162.758 24.04C162.932 24.4267 163.178 24.74 163.498 24.98C163.832 25.22 164.225 25.34 164.678 25.34C165.052 25.34 165.365 25.2867 165.618 25.18C165.872 25.06 166.078 24.9267 166.238 24.78C166.398 24.6333 166.512 24.5133 166.578 24.42C166.698 24.26 166.792 24.1667 166.858 24.14C166.938 24.1 167.052 24.08 167.198 24.08H168.918C169.052 24.08 169.158 24.12 169.238 24.2C169.332 24.28 169.372 24.38 169.358 24.5C169.345 24.7133 169.232 24.9733 169.018 25.28C168.818 25.5867 168.525 25.8867 168.138 26.18C167.752 26.4733 167.265 26.72 166.678 26.92C166.105 27.1067 165.445 27.2 164.698 27.2ZM162.498 20.9H166.918V20.84C166.918 20.32 166.832 19.8667 166.658 19.48C166.485 19.0933 166.232 18.7867 165.898 18.56C165.565 18.3333 165.165 18.22 164.698 18.22C164.232 18.22 163.832 18.3333 163.498 18.56C163.165 18.7867 162.912 19.0933 162.738 19.48C162.578 19.8667 162.498 20.32 162.498 20.84V20.9ZM176.422 27C175.622 27 174.949 26.86 174.402 26.58C173.856 26.3 173.449 25.8867 173.182 25.34C172.916 24.78 172.782 24.0867 172.782 23.26V18.72H171.202C171.069 18.72 170.956 18.6733 170.862 18.58C170.769 18.4867 170.722 18.3733 170.722 18.24V17.08C170.722 16.9467 170.769 16.8333 170.862 16.74C170.956 16.6467 171.069 16.6 171.202 16.6H172.782V13.28C172.782 13.1467 172.822 13.0333 172.902 12.94C172.996 12.8467 173.116 12.8 173.262 12.8H174.882C175.016 12.8 175.129 12.8467 175.222 12.94C175.316 13.0333 175.362 13.1467 175.362 13.28V16.6H177.862C177.996 16.6 178.109 16.6467 178.202 16.74C178.296 16.8333 178.342 16.9467 178.342 17.08V18.24C178.342 18.3733 178.296 18.4867 178.202 18.58C178.109 18.6733 177.996 18.72 177.862 18.72H175.362V23.06C175.362 23.6067 175.456 24.0333 175.642 24.34C175.842 24.6467 176.182 24.8 176.662 24.8H178.042C178.176 24.8 178.289 24.8467 178.382 24.94C178.476 25.0333 178.522 25.1467 178.522 25.28V26.52C178.522 26.6533 178.476 26.7667 178.382 26.86C178.289 26.9533 178.176 27 178.042 27H176.422ZM184.777 27.2C183.297 27.2 182.123 26.7733 181.257 25.92C180.39 25.0667 179.923 23.8533 179.857 22.28C179.843 22.1467 179.837 21.98 179.837 21.78C179.837 21.5667 179.843 21.4 179.857 21.28C179.91 20.28 180.137 19.4133 180.537 18.68C180.95 17.9467 181.517 17.3867 182.237 17C182.957 16.6 183.803 16.4 184.777 16.4C185.857 16.4 186.763 16.6267 187.497 17.08C188.23 17.52 188.783 18.14 189.157 18.94C189.53 19.7267 189.717 20.64 189.717 21.68V22.1C189.717 22.2333 189.67 22.3467 189.577 22.44C189.483 22.5333 189.363 22.58 189.217 22.58H182.577C182.577 22.58 182.577 22.6 182.577 22.64C182.577 22.68 182.577 22.7133 182.577 22.74C182.59 23.2067 182.677 23.64 182.837 24.04C183.01 24.4267 183.257 24.74 183.577 24.98C183.91 25.22 184.303 25.34 184.757 25.34C185.13 25.34 185.443 25.2867 185.697 25.18C185.95 25.06 186.157 24.9267 186.317 24.78C186.477 24.6333 186.59 24.5133 186.657 24.42C186.777 24.26 186.87 24.1667 186.937 24.14C187.017 24.1 187.13 24.08 187.277 24.08H188.997C189.13 24.08 189.237 24.12 189.317 24.2C189.41 24.28 189.45 24.38 189.437 24.5C189.423 24.7133 189.31 24.9733 189.097 25.28C188.897 25.5867 188.603 25.8867 188.217 26.18C187.83 26.4733 187.343 26.72 186.757 26.92C186.183 27.1067 185.523 27.2 184.777 27.2ZM182.577 20.9H186.997V20.84C186.997 20.32 186.91 19.8667 186.737 19.48C186.563 19.0933 186.31 18.7867 185.977 18.56C185.643 18.3333 185.243 18.22 184.777 18.22C184.31 18.22 183.91 18.3333 183.577 18.56C183.243 18.7867 182.99 19.0933 182.817 19.48C182.657 19.8667 182.577 20.32 182.577 20.84V20.9Z" fill="white"/>
<path d="M106.309 26.4509C106.134 26.2757 106.046 26.0649 106.047 25.8186C106.048 25.5724 106.137 25.361 106.313 25.1844L111.478 20.0202L106.431 14.9731C106.256 14.7979 106.168 14.5872 106.169 14.3409C106.17 14.0946 106.259 13.8832 106.435 13.7067L107.839 12.303C108.033 12.1088 108.245 12.0201 108.473 12.0368C108.72 12.0359 108.93 12.1231 109.106 12.2983L114.153 17.3453L119.184 12.3135C119.361 12.1369 119.572 12.0482 119.819 12.0473C120.065 12.0464 120.276 12.1335 120.451 12.3088L121.976 13.8334C122.168 14.0261 122.255 14.2369 122.237 14.4656C122.236 14.7119 122.147 14.9233 121.971 15.0999L116.939 20.1317L121.986 25.1787C122.161 25.354 122.248 25.5647 122.247 25.811C122.264 26.0396 122.175 26.251 121.981 26.4452L120.578 27.8488C120.401 28.0254 120.19 28.1141 119.943 28.115C119.697 28.1159 119.486 28.0288 119.311 27.8535L114.264 22.8065L109.1 27.9708C108.923 28.1473 108.712 28.2361 108.466 28.237C108.237 28.2554 108.026 28.1683 107.833 27.9755L106.309 26.4509Z" fill="white"/>
<defs>
<linearGradient id="paint0_linear_195_40" x1="145" y1="-5.96874e-06" x2="260.166" y2="273.068" gradientUnits="userSpaceOnUse">
<stop stop-color="#FF3131"/>
<stop offset="1" stop-color="white"/>
</linearGradient>
</defs>
</svg>
