<svg width="15" height="16" viewBox="0 0 15 16" fill="none" xmlns="http://www.w3.org/2000/svg">
<path d="M1.22783 14.1222H2.12824L11.1937 5.05668L10.2933 4.15627L1.22783 13.2218V14.1222ZM13.7926 4.17674L11.1733 1.55737L12.0327 0.697884C12.2647 0.46596 12.5512 0.349998 12.8922 0.349998C13.2333 0.349998 13.5198 0.46596 13.7517 0.697884L14.6521 1.59829C14.884 1.83022 15 2.11671 15 2.45777C15 2.79884 14.884 3.08533 14.6521 3.31726L13.7926 4.17674ZM12.9332 5.03622L2.61937 15.35H0V12.7306L10.3138 2.41685L12.9332 5.03622ZM10.7435 4.60648L10.2933 4.15627L11.1937 5.05668L10.7435 4.60648Z" fill="#8E94A3"/>
</svg>
