<svg width="16" height="16" viewBox="0 0 16 16" fill="none" xmlns="http://www.w3.org/2000/svg">
<path d="M10.6667 5.33334H1.77778V1.77778H10.6667M8 14.2222C7.29275 14.2222 6.61448 13.9413 6.11438 13.4412C5.61428 12.9411 5.33334 12.2628 5.33334 11.5556C5.33334 10.8483 5.61428 10.17 6.11438 9.66994C6.61448 9.16984 7.29275 8.88889 8 8.88889C8.70724 8.88889 9.38552 9.16984 9.88562 9.66994C10.3857 10.17 10.6667 10.8483 10.6667 11.5556C10.6667 12.2628 10.3857 12.9411 9.88562 13.4412C9.38552 13.9413 8.70724 14.2222 8 14.2222ZM12.4444 1.39033e-06H1.77778C1.30628 1.39033e-06 0.8541 0.187303 0.520702 0.520702C0.187304 0.8541 -1.3904e-06 1.30628 -1.3904e-06 1.77778V14.2222C-1.3904e-06 14.6937 0.187304 15.1459 0.520702 15.4793C0.8541 15.8127 1.30628 16 1.77778 16H14.2222C14.6937 16 15.1459 15.8127 15.4793 15.4793C15.8127 15.1459 16 14.6937 16 14.2222V3.55556L12.4444 1.39033e-06Z" fill="white"/>
</svg>
