<svg width="600" height="600" viewBox="0 0 600 600" fill="none" xmlns="http://www.w3.org/2000/svg">
<path fill-rule="evenodd" clip-rule="evenodd" d="M155.75 68.7502C194.008 30.4928 245.896 9 300 9C354.104 9 405.992 30.4928 444.25 68.7502C482.507 107.008 504 158.896 504 213C504 366 300 591.857 300 591.857C300 591.857 96 366 96 213C96 158.896 117.493 107.008 155.75 68.7502ZM215.959 188.441C214.138 187.986 212.487 187.758 211.007 187.758C209.869 187.872 208.218 188.156 206.055 188.612C203.892 189.067 202.413 189.693 201.616 190.49C202.413 190.49 202.811 190.718 202.811 191.173C203.722 190.604 204.632 190.092 205.543 189.636C206.454 189.181 207.478 188.953 208.617 188.953C209.755 189.181 211.007 189.522 212.373 189.978C213.739 190.433 215.105 191.116 216.471 192.027C217.837 192.937 219.317 193.677 220.911 194.247C222.505 194.816 224.269 195.1 226.204 195.1C227.229 195.1 228.197 195.043 229.107 194.93L231.839 194.588C230.359 193.905 228.709 193.222 226.887 192.539C225.066 191.856 223.245 191.116 221.423 190.319C219.602 189.522 217.781 188.896 215.959 188.441ZM246.866 197.832C242.995 196.239 238.726 195.442 234.059 195.442C233.718 196.58 233.262 197.263 232.693 197.491C232.124 197.719 231.555 198.288 230.986 199.198C232.807 199.654 234.856 199.881 237.133 199.881C238.84 199.768 240.491 199.54 242.085 199.198C243.678 198.857 245.272 198.402 246.866 197.832ZM347.44 43.2994C332.641 39.0875 317.217 36.9815 301.166 36.9815C285.229 36.8677 269.747 38.9737 254.72 43.2994C239.694 47.6252 225.806 53.5447 213.056 61.0579C200.307 68.5711 188.525 77.678 177.71 88.3787C166.896 99.0793 157.732 110.918 150.219 123.896C142.705 136.873 136.843 150.761 132.631 165.56C128.419 180.359 126.313 195.783 126.313 211.834C126.199 227.771 128.305 243.253 132.631 258.28C136.957 273.306 142.876 287.194 150.389 299.944C157.903 312.693 167.009 324.475 177.71 335.29C188.411 346.104 200.25 355.268 213.227 362.781C226.204 370.295 240.092 376.157 254.891 380.369C269.69 384.581 285.115 386.687 301.166 386.687C317.103 386.801 332.585 384.695 347.611 380.369C362.637 376.043 376.525 370.124 389.275 362.611C402.025 355.097 413.807 345.991 424.621 335.29C435.436 324.589 444.6 312.75 452.113 299.773C459.626 286.796 465.489 272.908 469.701 258.109C473.913 243.31 476.018 227.885 476.018 211.834C476.132 195.897 474.026 180.415 469.701 165.389C465.375 150.363 459.455 136.475 451.942 123.725C444.429 110.975 435.322 99.1931 424.621 88.3787C413.921 77.5642 402.082 68.4004 389.104 60.8872C376.127 53.374 362.239 47.5114 347.44 43.2994ZM426.5 124.579C428.093 126.855 429.687 129.246 431.281 131.75C430.37 131.409 429.289 131.01 428.036 130.555C426.784 130.1 425.532 129.417 424.28 128.506C423.028 127.595 422.003 126.685 421.206 125.774C420.409 124.863 420.011 123.896 420.011 122.871C420.125 121.277 420.352 120.253 420.694 119.798C421.035 119.342 421.32 118.602 421.548 117.578C423.255 119.968 424.906 122.302 426.5 124.579ZM418.986 116.895C419.328 116.553 419.499 115.927 419.499 115.016L421.035 117.065C420.808 116.952 420.466 116.895 420.011 116.895H418.986ZM339.244 359.879C326.836 363.18 314.143 364.83 301.166 364.83C294.905 364.83 288.701 364.432 282.553 363.635C276.406 362.838 270.259 361.643 264.112 360.049C265.478 358.228 267.015 356.008 268.722 353.39C270.43 350.772 271.967 347.983 273.333 345.023C274.699 342.063 275.666 339.16 276.236 336.314C276.805 333.469 276.52 330.964 275.382 328.801C275.723 329.143 276.008 329.029 276.236 328.46C276.463 327.891 276.463 327.492 276.236 327.264L283.407 332.729C285.798 332.729 288.188 331.932 290.579 330.338C292.969 328.744 295.019 326.752 296.726 324.362C298.434 321.971 299.857 319.467 300.995 316.848C302.133 314.23 302.703 311.783 302.703 309.506C306.687 307.002 310.386 305.066 313.802 303.7C317.217 302.334 320.233 300.627 322.852 298.578C325.47 296.529 327.405 293.967 328.657 290.894C329.909 287.82 330.308 283.38 329.852 277.575L335.658 271.428C335.317 269.265 334.178 266.76 332.243 263.914C330.308 261.069 327.519 258.223 323.876 255.377C320.233 252.531 316.363 249.685 312.265 246.839C308.167 243.993 304.012 241.546 299.8 239.497C295.588 237.447 291.717 235.74 288.188 234.374C284.659 233.008 281.87 232.325 279.821 232.325C279.366 231.869 278.569 231.243 277.431 230.447C276.292 229.65 274.983 228.739 273.503 227.714C272.024 226.69 270.658 225.836 269.405 225.153C268.153 224.47 267.356 224.072 267.015 223.958L267.356 222.592C267.242 222.023 266.73 221.624 265.82 221.397C264.909 221.169 264.453 220.657 264.453 219.86C263.543 219.404 262.177 218.949 260.355 218.494C258.534 218.038 256.599 217.412 254.55 216.615C252.501 215.819 250.565 215.192 248.744 214.737C246.923 214.282 245.727 214.054 245.158 214.054C240.149 214.168 235.994 215.022 232.693 216.615C229.392 218.209 226.774 221.226 224.838 225.665L221.253 224.812C221.594 225.95 221.992 227.145 222.448 228.397C222.903 229.65 223.131 230.845 223.131 231.983C223.017 233.691 222.619 235.398 221.936 237.106C221.253 238.814 220.285 240.407 219.033 241.887C217.781 243.367 216.585 244.847 215.447 246.327C214.309 247.807 213.398 249.343 212.715 250.937L215.276 252.132C213.91 254.409 213.569 257.084 214.252 260.158C214.935 263.231 215.845 266.533 216.984 270.062C218.122 273.591 219.659 277.347 221.594 281.331C223.529 285.316 225.294 289.357 226.887 293.455C228.481 297.553 229.847 301.594 230.986 305.579C232.124 309.563 232.693 313.376 232.693 317.019C232.693 319.524 232.295 321.971 231.498 324.362C230.701 326.752 229.961 329.143 229.278 331.533C228.595 333.924 228.026 336.314 227.57 338.705C227.115 341.096 227.172 343.486 227.741 345.877C215.675 339.16 204.689 331.021 194.786 321.459C184.882 311.897 176.515 301.31 169.685 289.698C162.854 278.087 157.561 265.679 153.804 252.474C150.048 239.269 148.17 225.722 148.17 211.834L149.365 193.564C152.438 195.84 155.797 198.003 159.439 200.052C163.082 202.101 167.009 203.98 171.221 205.687C175.433 207.395 179.588 208.761 183.687 209.785C187.785 210.81 191.655 211.379 195.298 211.493L201.445 221.909C201.673 222.364 201.73 222.193 201.616 221.397C201.502 220.6 201.388 220.087 201.274 219.86L214.935 227.544L220.74 224.47C218.122 223.332 215.675 221.51 213.398 219.006C211.121 216.502 208.901 214.054 206.738 211.664C204.575 209.273 202.356 207.452 200.079 206.199C197.802 204.947 195.298 205.232 192.566 207.053L190.346 206.029C190.915 203.297 191.826 200.792 193.078 198.515C194.33 196.239 195.469 193.848 196.493 191.344C193.306 192.71 190.061 193.905 186.76 194.93C183.459 195.954 180.101 196.466 176.686 196.466C172.701 196.353 169.912 195.157 168.319 192.881C166.725 190.604 165.928 187.644 165.928 184.001L166.953 176.317C168.66 174.724 170.368 173.528 172.075 172.731C173.783 171.935 175.718 171.479 177.881 171.365C180.044 171.252 182.15 171.309 184.199 171.536C186.248 171.764 188.24 171.992 190.175 172.219L186.589 169.829L193.932 169.146C198.485 169.146 202.356 170.284 205.543 172.561C208.731 174.837 211.121 178.139 212.715 182.464C212.942 180.529 212.999 178.651 212.886 176.83C212.772 175.008 212.715 173.13 212.715 171.195C212.942 167.893 213.853 165.389 215.447 163.681C217.041 161.974 218.805 160.665 220.74 159.754C222.675 158.843 224.098 158.274 225.009 158.047C225.92 157.819 225.578 157.705 223.985 157.705C223.757 157.819 223.757 157.762 223.985 157.534C224.212 157.307 224.668 157.136 225.351 157.022C226.034 156.908 226.603 156.681 227.058 156.339C227.514 155.998 227.741 155.656 227.741 155.314C227.627 155.314 227.4 155.03 227.058 154.461C226.717 153.892 226.261 153.322 225.692 152.753C225.123 152.184 224.668 151.558 224.326 150.875C223.985 150.192 223.814 149.68 223.814 149.338L223.472 148.655L225.692 149.85C225.806 149.623 225.749 149.281 225.521 148.826C225.294 148.37 225.18 147.915 225.18 147.46C225.18 147.004 225.237 146.606 225.351 146.264C225.464 145.923 225.92 145.752 226.717 145.752L227.4 145.923L226.546 151.899L227.741 151.387V146.606L243.451 140.459L242.768 137.556C245.614 136.19 248.346 134.71 250.964 133.116C253.582 131.523 256.03 129.758 258.306 127.823L248.403 124.579C248.63 123.213 249.313 122.245 250.452 121.676C251.59 121.107 253.241 120.537 255.403 119.968C257.566 119.399 259.729 118.944 261.892 118.602C264.055 118.261 266.161 117.748 268.21 117.065C270.259 116.382 271.91 115.529 273.162 114.504C274.414 113.48 275.04 112.114 275.04 110.406C274.926 109.04 273.959 107.56 272.137 105.966C270.316 104.373 268.096 102.836 265.478 101.356C262.86 99.8761 260.298 98.6239 257.794 97.5994C255.29 96.5749 253.468 95.835 252.33 95.3796L246.183 100.161C244.02 97.5425 242.426 95.3796 241.402 93.6721C240.377 91.9645 239.182 90.6554 237.816 89.7447C236.45 88.834 234.856 88.2079 233.035 87.8664C231.213 87.5249 228.595 87.3541 225.18 87.3541C224.383 87.3541 223.415 87.7526 222.277 88.5494C221.139 89.3463 220.285 89.9155 219.716 90.257L224.155 102.893L218.52 110.918L218.862 114.675L216.13 116.724C213.625 116.61 211.633 115.813 210.153 114.333C208.674 112.854 207.251 111.203 205.885 109.381C204.519 107.56 203.039 105.909 201.445 104.43C199.851 102.95 197.575 102.21 194.615 102.21C201.559 95.3796 209.243 89.2324 217.667 83.7683C226.091 78.3041 234.799 73.7507 243.792 70.1079C252.785 66.4652 262.12 63.6762 271.796 61.7409C281.472 59.8057 291.262 58.8381 301.166 58.8381C313.119 58.8381 324.787 60.2041 336.17 62.9362C347.554 65.6683 358.539 69.6526 369.126 74.889L359.564 76.4258V78.1334C362.979 78.1334 366.109 78.9302 368.955 80.524C371.801 82.1177 373.85 84.5082 375.102 87.6956L345.562 96.9164L348.465 101.185L345.903 111.089L348.636 116.895C351.254 115.756 353.986 115.244 356.832 115.358C359.678 115.472 362.41 115.472 365.028 115.358C367.646 115.244 370.208 114.789 372.712 113.992C375.216 113.195 377.493 111.146 379.542 107.845L378.518 104.6C378.745 103.007 379.371 101.47 380.396 99.99C381.42 98.5101 382.843 97.1441 384.665 95.8919C386.486 94.6397 388.307 93.6151 390.129 92.8183C391.95 92.0214 393.487 91.3953 394.739 90.94C399.293 94.4689 403.562 98.1686 407.546 102.039C411.53 105.909 415.344 110.008 418.986 114.333C415.685 115.244 412.042 115.984 408.058 116.553C404.074 117.122 400.033 117.692 395.935 118.261C391.836 118.83 387.795 119.228 383.811 119.456C379.827 119.684 376.241 119.798 373.053 119.798L370.492 120.139L359.222 133.799L359.735 135.848C356.889 139.377 354.1 142.166 351.368 144.215C348.636 146.264 346.131 148.314 343.854 150.363C341.578 152.412 340.041 155.03 339.244 158.217C338.447 161.405 338.846 165.958 340.439 171.878L336.17 182.806L342.318 186.05C341.862 186.392 341.236 186.62 340.439 186.733C339.642 186.847 339.13 186.62 338.902 186.05L340.269 191.173L344.196 191.685L342.318 193.222C342.204 194.133 342.488 194.93 343.171 195.613C343.854 196.296 344.594 196.922 345.391 197.491C346.188 198.06 347.042 198.629 347.952 199.198C348.863 199.768 349.603 200.394 350.172 201.077L349.831 201.589C349.831 202.841 350.685 204.15 352.392 205.516C354.1 206.882 356.035 208.135 358.198 209.273C360.361 210.411 362.524 211.379 364.686 212.176C366.849 212.973 368.5 213.371 369.638 213.371C371.346 213.371 373.11 213.03 374.932 212.347C376.753 211.664 378.461 211.094 380.054 210.639L379.542 211.834L382.274 212.176C383.754 211.948 385.291 211.72 386.885 211.493C388.478 211.265 389.958 210.81 391.324 210.127C392.69 209.444 394.113 208.818 395.593 208.248C397.073 207.679 398.553 207.224 400.033 206.882L399.008 207.736C401.513 209.558 404.358 210.924 407.546 211.834C410.733 212.745 413.807 213.371 416.767 213.713C417.222 214.623 417.507 215.705 417.62 216.957C417.734 218.209 417.677 219.575 417.45 221.055C417.222 222.535 416.994 223.958 416.767 225.324C416.539 226.69 416.368 227.771 416.254 228.568C418.873 233.122 420.979 236.651 422.572 239.155C424.166 241.659 425.134 243.993 425.475 246.156C425.817 248.319 425.987 250.083 425.987 251.449C425.987 252.815 425.76 254.466 425.304 256.401C424.849 258.336 424.451 260.556 424.109 263.061C423.768 265.565 423.597 268.866 423.597 272.964C423.597 276.721 424.28 280.364 425.646 283.893C427.012 287.422 428.435 290.894 429.915 294.309C422.857 305.123 414.604 314.913 405.155 323.679C395.707 332.444 385.462 339.843 374.419 345.877C363.377 351.91 351.652 356.577 339.244 359.879Z" fill="url(#paint0_linear_237_62)"/>
<defs>
<linearGradient id="paint0_linear_237_62" x1="300" y1="8.99998" x2="829.234" y2="1003.94" gradientUnits="userSpaceOnUse">
<stop stop-color="#316BFF"/>
<stop offset="1" stop-color="white"/>
</linearGradient>
</defs>
</svg>
