<svg width="290" height="40" viewBox="0 0 290 40" fill="none" xmlns="http://www.w3.org/2000/svg">
<rect width="290" height="40" rx="20" fill="url(#paint0_linear_182_43)"/>
<path d="M120.667 17.3333H111.778V13.7778H120.667M118 26.2222C117.293 26.2222 116.614 25.9413 116.114 25.4412C115.614 24.9411 115.333 24.2628 115.333 23.5556C115.333 22.8483 115.614 22.17 116.114 21.6699C116.614 21.1698 117.293 20.8889 118 20.8889C118.707 20.8889 119.386 21.1698 119.886 21.6699C120.386 22.17 120.667 22.8483 120.667 23.5556C120.667 24.2628 120.386 24.9411 119.886 25.4412C119.386 25.9413 118.707 26.2222 118 26.2222ZM122.444 12H111.778C111.306 12 110.854 12.1873 110.521 12.5207C110.187 12.8541 110 13.3063 110 13.7778V26.2222C110 26.6937 110.187 27.1459 110.521 27.4793C110.854 27.8127 111.306 28 111.778 28H124.222C124.694 28 125.146 27.8127 125.479 27.4793C125.813 27.1459 126 26.6937 126 26.2222V15.5556L122.444 12Z" fill="white"/>
<path d="M138.42 27.2C137.18 27.2 136.14 27.02 135.3 26.66C134.473 26.2867 133.84 25.8067 133.4 25.22C132.973 24.62 132.747 23.9933 132.72 23.34C132.72 23.22 132.76 23.12 132.84 23.04C132.92 22.96 133.02 22.92 133.14 22.92H134.92C135.093 22.92 135.22 22.96 135.3 23.04C135.393 23.1067 135.473 23.1933 135.54 23.3C135.62 23.5533 135.773 23.8067 136 24.06C136.227 24.3 136.533 24.5 136.92 24.66C137.32 24.82 137.82 24.9 138.42 24.9C139.38 24.9 140.093 24.74 140.56 24.42C141.04 24.1 141.28 23.6667 141.28 23.12C141.28 22.7333 141.153 22.4267 140.9 22.2C140.647 21.96 140.253 21.7467 139.72 21.56C139.2 21.36 138.507 21.1533 137.64 20.94C136.64 20.7 135.8 20.4133 135.12 20.08C134.453 19.7333 133.947 19.3 133.6 18.78C133.267 18.26 133.1 17.6 133.1 16.8C133.1 16.0267 133.307 15.34 133.72 14.74C134.147 14.14 134.747 13.6667 135.52 13.32C136.307 12.9733 137.24 12.8 138.32 12.8C139.187 12.8 139.953 12.92 140.62 13.16C141.287 13.3867 141.84 13.6933 142.28 14.08C142.72 14.4533 143.053 14.86 143.28 15.3C143.52 15.7267 143.647 16.1467 143.66 16.56C143.66 16.6667 143.62 16.7667 143.54 16.86C143.473 16.94 143.373 16.98 143.24 16.98H141.38C141.273 16.98 141.167 16.9533 141.06 16.9C140.953 16.8467 140.867 16.7467 140.8 16.6C140.72 16.1867 140.46 15.8333 140.02 15.54C139.58 15.2467 139.013 15.1 138.32 15.1C137.6 15.1 137.02 15.2333 136.58 15.5C136.14 15.7667 135.92 16.18 135.92 16.74C135.92 17.1133 136.027 17.4267 136.24 17.68C136.467 17.92 136.82 18.1333 137.3 18.32C137.793 18.5067 138.44 18.7067 139.24 18.92C140.373 19.1733 141.3 19.4667 142.02 19.8C142.74 20.1333 143.267 20.56 143.6 21.08C143.933 21.5867 144.1 22.2333 144.1 23.02C144.1 23.9 143.86 24.6533 143.38 25.28C142.913 25.8933 142.253 26.3667 141.4 26.7C140.547 27.0333 139.553 27.2 138.42 27.2ZM149.172 27.2C148.479 27.2 147.852 27.0667 147.292 26.8C146.732 26.52 146.285 26.1533 145.952 25.7C145.632 25.2333 145.472 24.7133 145.472 24.14C145.472 23.2067 145.845 22.4667 146.592 21.92C147.352 21.36 148.352 20.9867 149.592 20.8L152.332 20.4V19.98C152.332 19.42 152.192 18.9867 151.912 18.68C151.632 18.3733 151.152 18.22 150.472 18.22C149.992 18.22 149.599 18.32 149.292 18.52C148.999 18.7067 148.779 18.96 148.632 19.28C148.525 19.4533 148.372 19.54 148.172 19.54H146.592C146.445 19.54 146.332 19.5 146.252 19.42C146.185 19.34 146.152 19.2333 146.152 19.1C146.165 18.8867 146.252 18.6267 146.412 18.32C146.572 18.0133 146.825 17.72 147.172 17.44C147.519 17.1467 147.965 16.9 148.512 16.7C149.059 16.5 149.719 16.4 150.492 16.4C151.332 16.4 152.039 16.5067 152.612 16.72C153.199 16.92 153.665 17.1933 154.012 17.54C154.359 17.8867 154.612 18.2933 154.772 18.76C154.932 19.2267 155.012 19.72 155.012 20.24V26.52C155.012 26.6533 154.965 26.7667 154.872 26.86C154.779 26.9533 154.665 27 154.532 27H152.912C152.765 27 152.645 26.9533 152.552 26.86C152.472 26.7667 152.432 26.6533 152.432 26.52V25.74C152.259 25.9933 152.025 26.2333 151.732 26.46C151.439 26.6733 151.079 26.8533 150.652 27C150.239 27.1333 149.745 27.2 149.172 27.2ZM149.852 25.3C150.319 25.3 150.739 25.2 151.112 25C151.499 24.8 151.799 24.4933 152.012 24.08C152.239 23.6533 152.352 23.12 152.352 22.48V22.06L150.352 22.38C149.565 22.5 148.979 22.6933 148.592 22.96C148.205 23.2267 148.012 23.5533 148.012 23.94C148.012 24.2333 148.099 24.4867 148.272 24.7C148.459 24.9 148.692 25.0533 148.972 25.16C149.252 25.2533 149.545 25.3 149.852 25.3ZM161.004 27C160.791 27 160.631 26.9533 160.524 26.86C160.431 26.7533 160.351 26.6333 160.284 26.5L156.544 17.22C156.517 17.1533 156.504 17.0933 156.504 17.04C156.504 16.92 156.544 16.82 156.624 16.74C156.717 16.6467 156.824 16.6 156.944 16.6H158.564C158.724 16.6 158.844 16.6467 158.924 16.74C159.004 16.82 159.057 16.9 159.084 16.98L161.744 24L164.404 16.98C164.431 16.9 164.484 16.82 164.564 16.74C164.644 16.6467 164.764 16.6 164.924 16.6H166.564C166.671 16.6 166.764 16.6467 166.844 16.74C166.937 16.82 166.984 16.92 166.984 17.04C166.984 17.0933 166.977 17.1533 166.964 17.22L163.204 26.5C163.151 26.6333 163.071 26.7533 162.964 26.86C162.857 26.9533 162.697 27 162.484 27H161.004ZM172.917 27.2C171.437 27.2 170.264 26.7733 169.397 25.92C168.531 25.0667 168.064 23.8533 167.997 22.28C167.984 22.1467 167.977 21.98 167.977 21.78C167.977 21.5667 167.984 21.4 167.997 21.28C168.051 20.28 168.277 19.4133 168.677 18.68C169.091 17.9467 169.657 17.3867 170.377 17C171.097 16.6 171.944 16.4 172.917 16.4C173.997 16.4 174.904 16.6267 175.637 17.08C176.371 17.52 176.924 18.14 177.297 18.94C177.671 19.7267 177.857 20.64 177.857 21.68V22.1C177.857 22.2333 177.811 22.3467 177.717 22.44C177.624 22.5333 177.504 22.58 177.357 22.58H170.717C170.717 22.58 170.717 22.6 170.717 22.64C170.717 22.68 170.717 22.7133 170.717 22.74C170.731 23.2067 170.817 23.64 170.977 24.04C171.151 24.4267 171.397 24.74 171.717 24.98C172.051 25.22 172.444 25.34 172.897 25.34C173.271 25.34 173.584 25.2867 173.837 25.18C174.091 25.06 174.297 24.9267 174.457 24.78C174.617 24.6333 174.731 24.5133 174.797 24.42C174.917 24.26 175.011 24.1667 175.077 24.14C175.157 24.1 175.271 24.08 175.417 24.08H177.137C177.271 24.08 177.377 24.12 177.457 24.2C177.551 24.28 177.591 24.38 177.577 24.5C177.564 24.7133 177.451 24.9733 177.237 25.28C177.037 25.5867 176.744 25.8867 176.357 26.18C175.971 26.4733 175.484 26.72 174.897 26.92C174.324 27.1067 173.664 27.2 172.917 27.2ZM170.717 20.9H175.137V20.84C175.137 20.32 175.051 19.8667 174.877 19.48C174.704 19.0933 174.451 18.7867 174.117 18.56C173.784 18.3333 173.384 18.22 172.917 18.22C172.451 18.22 172.051 18.3333 171.717 18.56C171.384 18.7867 171.131 19.0933 170.957 19.48C170.797 19.8667 170.717 20.32 170.717 20.84V20.9Z" fill="white"/>
<defs>
<linearGradient id="paint0_linear_182_43" x1="145" y1="-5.96874e-06" x2="260.166" y2="273.068" gradientUnits="userSpaceOnUse">
<stop stop-color="#316BFF"/>
<stop offset="1" stop-color="white"/>
</linearGradient>
</defs>
</svg>
