<svg width="30" height="34" viewBox="0 0 30 34" fill="none" xmlns="http://www.w3.org/2000/svg">
<path d="M5.99998 33.0799C5.00998 33.0799 4.16278 32.7277 3.45838 32.0233C2.75278 31.3177 2.39998 30.4699 2.39998 29.4799V6.07993C1.88998 6.07993 1.46218 5.90773 1.11658 5.56333C0.772176 5.21773 0.599976 4.78993 0.599976 4.27993C0.599976 3.76993 0.772176 3.34213 1.11658 2.99653C1.46218 2.65213 1.88998 2.47993 2.39998 2.47993H9.59998C9.59998 1.96993 9.77278 1.54213 10.1184 1.19653C10.4628 0.852132 10.89 0.679932 11.4 0.679932H18.6C19.11 0.679932 19.5378 0.852132 19.8834 1.19653C20.2278 1.54213 20.4 1.96993 20.4 2.47993H27.6C28.11 2.47993 28.5372 2.65213 28.8816 2.99653C29.2272 3.34213 29.4 3.76993 29.4 4.27993C29.4 4.78993 29.2272 5.21773 28.8816 5.56333C28.5372 5.90773 28.11 6.07993 27.6 6.07993V29.4799C27.6 30.4699 27.2478 31.3177 26.5434 32.0233C25.8378 32.7277 24.99 33.0799 24 33.0799H5.99998ZM5.99998 6.07993V29.4799H24V6.07993H5.99998ZM9.59998 24.0799C9.59998 24.5899 9.77278 25.0171 10.1184 25.3615C10.4628 25.7071 10.89 25.8799 11.4 25.8799C11.91 25.8799 12.3378 25.7071 12.6834 25.3615C13.0278 25.0171 13.2 24.5899 13.2 24.0799V11.4799C13.2 10.9699 13.0278 10.5421 12.6834 10.1965C12.3378 9.85213 11.91 9.67993 11.4 9.67993C10.89 9.67993 10.4628 9.85213 10.1184 10.1965C9.77278 10.5421 9.59998 10.9699 9.59998 11.4799V24.0799ZM16.8 24.0799C16.8 24.5899 16.9728 25.0171 17.3184 25.3615C17.6628 25.7071 18.09 25.8799 18.6 25.8799C19.11 25.8799 19.5378 25.7071 19.8834 25.3615C20.2278 25.0171 20.4 24.5899 20.4 24.0799V11.4799C20.4 10.9699 20.2278 10.5421 19.8834 10.1965C19.5378 9.85213 19.11 9.67993 18.6 9.67993C18.09 9.67993 17.6628 9.85213 17.3184 10.1965C16.9728 10.5421 16.8 10.9699 16.8 11.4799V24.0799ZM5.99998 6.07993V29.4799V6.07993Z" fill="black"/>
</svg>
